HIERARCHY
ROOT Hips
{
	OFFSET 0.000000 0.000000 0.000000
	CHANNELS 6 Xposition Yposition Zposition Zrotation Yrotation Xrotation 
	JOINT LeftUpLeg_virtual
	{
		OFFSET 0.000000 0.000000 0.000000
		CHANNELS 3 Zrotation Yrotation Xrotation
		JOINT LeftUpLeg
		{
			OFFSET 10.205400 -3.823500 0.155100
			CHANNELS 3 Zrotation Yrotation Xrotation
			JOINT LeftLeg
			{
				OFFSET 0.708757 -12.982077 0.567790
				CHANNELS 3 Zrotation Yrotation Xrotation
				JOINT LeftFoot
				{
					OFFSET -0.708756 -10.717838 -2.184338
					CHANNELS 3 Zrotation Yrotation Xrotation
					JOINT LeftToeBase
					{
						OFFSET 0.108149 -7.191104 7.560241
						CHANNELS 3 Zrotation Yrotation Xrotation
						End Site
						{
							OFFSET 0.000000 0.000000 0.000000
						}
					}
				}
			}
		}
	}
	JOINT RightUpLeg_virtual
	{
		OFFSET 0.000000 0.000000 0.000000
		CHANNELS 3 Zrotation Yrotation Xrotation
		JOINT RightUpLeg
		{
			OFFSET -10.205400 -3.823500 0.005500
			CHANNELS 3 Zrotation Yrotation Xrotation
			JOINT RightLeg
			{
				OFFSET -0.708756 -12.982134 0.610632
				CHANNELS 3 Zrotation Yrotation Xrotation
				JOINT RightFoot
				{
					OFFSET 0.708754 -10.717769 -1.945823
					CHANNELS 3 Zrotation Yrotation Xrotation
					JOINT RightToeBase
					{
						OFFSET -0.108140 -7.191069 7.372968
						CHANNELS 3 Zrotation Yrotation Xrotation
						End Site
						{
							OFFSET 0.000000 0.000000 0.000000
						}
					}
				}
			}
		}
	}
	JOINT Spine_virtual
	{
		OFFSET 0.000000 0.000000 0.000000
		CHANNELS 3 Zrotation Yrotation Xrotation
		JOINT Spine
		{
			OFFSET 0.000000 6.876099 0.125700
			CHANNELS 3 Zrotation Yrotation Xrotation
			JOINT Spine1
			{
				OFFSET 0.000000 8.022060 0.146608
				CHANNELS 3 Zrotation Yrotation Xrotation
				JOINT Spine2
				{
					OFFSET 0.000000 9.168068 0.167552
					CHANNELS 3 Zrotation Yrotation Xrotation
					JOINT Neck_virtual
					{
						OFFSET 0.000000 0.000000 0.000000
						CHANNELS 3 Zrotation Yrotation Xrotation
						JOINT Neck
						{
							OFFSET 0.000000 10.314075 0.188496
							CHANNELS 3 Zrotation Yrotation Xrotation
							JOINT Head
							{
								OFFSET 0.000000 7.643700 -2.377400
								CHANNELS 3 Zrotation Yrotation Xrotation
								End Site
								{
									OFFSET 0.000000 0.000000 0.000000
								}
							}
						}
					}
					JOINT LeftShoulder_virtual
					{
						OFFSET 0.000000 0.000000 0.000000
						CHANNELS 3 Zrotation Yrotation Xrotation
						JOINT LeftShoulder
						{
							OFFSET 4.392200 8.824978 0.174984
							CHANNELS 3 Zrotation Yrotation Xrotation
							JOINT LeftArm
							{
								OFFSET 8.771219 -2.981674 -0.026999
								CHANNELS 3 Zrotation Yrotation Xrotation
								JOINT LeftForeArm
								{
									OFFSET 8.512804 0.000000 -0.000000
									CHANNELS 3 Zrotation Yrotation Xrotation
									JOINT LeftHand
									{
										OFFSET 18.484802 0.000000 -0.000000
										CHANNELS 3 Zrotation Yrotation Xrotation
										End Site
										{
											OFFSET 0.000000 0.000000 0.000000
										}
									}
								}
							}
						}
					}
					JOINT RightShoulder_virtual
					{
						OFFSET 0.000000 0.000000 0.000000
						CHANNELS 3 Zrotation Yrotation Xrotation
						JOINT RightShoulder
						{
							OFFSET -4.392200 8.824993 0.141379
							CHANNELS 3 Zrotation Yrotation Xrotation
							JOINT RightArm
							{
								OFFSET -8.771282 -2.981682 -0.094208
								CHANNELS 3 Zrotation Yrotation Xrotation
								JOINT RightForeArm
								{
									OFFSET -8.494598 0.000000 0.000000
									CHANNELS 3 Zrotation Yrotation Xrotation
									JOINT RightHand
									{
										OFFSET -18.483803 0.000000 0.000001
										CHANNELS 3 Zrotation Yrotation Xrotation
										End Site
										{
											OFFSET 0.000000 0.000000 0.000000
										}
									}
								}
							}
						}
					}
				}
			}
		}
	}
}
MOTION
Frames: 14
Frame Time: 0.033333
-0.753101 36.672409 34.863331 -179.938834 0.433189 179.816287 -3.638313 -1.689587 8.804986 -2.552742 -3.976811 -16.302948 14.095965 12.478363 18.229338 -3.426537 2.416799 10.264963 0.000000 0.000000 0.000000 1.750328 -0.296585 6.468379 -0.350673 2.272302 -5.855163 -6.995855 -0.674389 12.352219 2.315157 5.987164 11.205569 0.000000 0.000000 0.000000 0.683382 1.204328 -3.672512 -3.436720 3.690475 -5.827456 -0.390651 -3.389066 3.604901 -0.017516 -0.022155 0.007287 -1.110354 -1.226273 6.105974 1.305434 -5.683088 -1.344321 0.000000 0.000000 0.000000 0.547248 -0.294390 3.426992 5.291290 1.629090 -3.646281 0.452987 23.599912 -36.360034 -1.864884 -38.226492 -3.811750 0.000000 0.000000 0.000000 -3.266335 0.465184 2.978148 7.804049 -13.399439 -9.112495 17.896468 -28.471300 -33.231271 -1.700604 38.861990 -5.781420 0.000000 0.000000 0.000000 
-0.756335 36.673988 34.867538 179.926662 0.416045 179.920556 -3.716306 -1.627839 8.679119 -2.677099 -4.027393 -16.473539 13.857267 12.685470 18.048104 -3.677718 2.206772 10.384851 0.000000 0.000000 0.000000 1.723521 -0.366381 6.425516 -0.455598 1.989692 -5.954460 -6.854396 -1.173218 12.440122 2.052307 5.819173 11.403814 0.000000 0.000000 0.000000 0.633167 1.180047 -3.741693 -3.490038 3.683172 -5.813631 -0.416010 -3.395181 3.598543 0.037023 -0.026164 -0.027997 -1.194875 -1.307171 6.165323 1.277127 -5.717693 -1.378762 0.000000 0.000000 0.000000 0.489671 -0.276626 3.482058 5.263201 1.629866 -3.714723 0.434191 23.565522 -36.283956 -1.875392 -38.184692 -3.802877 0.000000 0.000000 0.000000 -3.287903 0.485132 3.020652 7.808306 -13.360569 -9.090160 17.888808 -28.440093 -33.071510 -1.882979 38.855413 -5.979856 0.000000 0.000000 0.000000 
-0.757526 36.671776 34.871269 179.975990 0.502415 179.818663 -3.680701 -1.520818 8.739634 -2.670802 -4.009351 -16.461640 13.868636 12.628072 18.015819 -3.667062 2.206621 10.439648 0.000000 0.000000 0.000000 1.737498 -0.286754 6.466728 -0.358968 1.801338 -5.878201 -6.936866 -1.085074 12.358290 2.182693 5.892725 11.544113 0.000000 0.000000 0.000000 0.639846 1.208912 -3.686566 -3.441094 3.733532 -5.770569 -0.406779 -3.327481 3.613488 -0.023237 0.040273 -0.016506 -1.076879 -1.261083 6.089772 1.305216 -5.706142 -1.398808 0.000000 0.000000 0.000000 0.564281 -0.356725 3.488418 5.279790 1.527843 -3.753360 0.397032 23.477751 -36.257793 -1.896532 -38.190665 -3.772273 0.000000 0.000000 0.000000 -3.239557 0.393360 2.913838 7.788666 -13.415230 -9.007825 17.874100 -28.416903 -33.102286 -1.847941 38.857663 -5.925555 0.000000 0.000000 0.000000 
-0.758879 36.671272 34.872864 -179.945432 0.353457 179.817639 -3.609992 -1.620799 8.731528 -2.663670 -4.012953 -16.506021 13.842774 12.608479 18.061131 -3.665304 2.193668 10.460840 0.000000 0.000000 0.000000 1.805907 -0.444260 6.498653 -0.377418 1.813982 -5.925721 -6.907842 -1.043368 12.356590 2.134878 5.860825 11.509438 0.000000 0.000000 0.000000 0.686704 1.202245 -3.670704 -3.418889 3.686581 -5.762826 -0.369405 -3.393464 3.616756 0.022615 -0.025925 -0.009457 -1.141767 -1.167552 6.091090 1.291769 -5.731669 -1.347786 0.000000 0.000000 0.000000 0.493675 -0.344945 3.465117 5.235698 1.511244 -3.668253 0.282764 23.474500 -36.092260 -1.673685 -38.167196 -3.981474 0.000000 0.000000 0.000000 -3.318557 0.427898 2.950858 7.776478 -13.343210 -8.937122 17.888518 -28.318487 -33.097666 -1.907926 38.839396 -6.003353 0.000000 0.000000 0.000000 
-0.760301 36.668552 34.874615 -179.949694 0.440427 179.809921 -3.602717 -1.553580 8.777608 -2.663460 -4.029443 -16.538016 13.835315 12.666239 18.063972 -3.652640 2.185109 10.449715 0.000000 0.000000 0.000000 1.801933 -0.318831 6.493171 -0.363517 1.834045 -5.938598 -6.890617 -1.044727 12.302492 2.121641 5.855201 11.535095 0.000000 0.000000 0.000000 0.693841 1.208779 -3.647558 -3.409250 3.678140 -5.754420 -0.366351 -3.396800 3.615255 0.004237 -0.028284 -0.023422 -1.124216 -1.180992 6.102936 1.303857 -5.710139 -1.301071 0.000000 0.000000 0.000000 0.525387 -0.301907 3.461660 5.254938 1.538709 -3.733288 0.212047 23.488645 -36.166774 -1.845340 -38.192287 -3.762539 0.000000 0.000000 0.000000 -3.280207 0.456041 2.960955 7.759135 -13.251232 -8.920809 17.921435 -28.310526 -33.109335 -1.859897 38.808100 -5.952064 0.000000 0.000000 0.000000 
-0.762714 36.667336 34.878132 179.983804 0.437767 179.759705 -3.659149 -1.544659 8.834170 -2.662554 -4.085701 -16.552308 13.851867 12.677120 18.096188 -3.626526 2.185357 10.412297 0.000000 0.000000 0.000000 1.738093 -0.339293 6.546255 -0.450309 1.966949 -5.913112 -6.803040 -1.046501 12.319872 2.058092 5.812939 11.482973 0.000000 0.000000 0.000000 0.685711 1.283299 -3.590930 -3.427521 3.588399 -5.731706 -0.405414 -3.483265 3.632642 0.013412 0.053095 0.024261 -1.103804 -1.227398 6.023610 1.285816 -5.715121 -1.233635 0.000000 0.000000 0.000000 0.546546 -0.304767 3.399817 5.275943 1.540630 -3.752706 0.060654 23.485949 -36.162286 -1.899054 -38.243042 -3.713574 0.000000 0.000000 0.000000 -3.246078 0.437190 2.917835 7.723795 -13.173172 -8.973664 17.957524 -28.239993 -33.107491 -1.775937 38.813656 -5.863696 0.000000 0.000000 0.000000 
-0.759465 36.666523 34.884438 179.965663 0.322153 179.922250 -3.684524 -1.696819 8.765624 -2.633237 -4.130771 -16.645955 13.849934 12.648183 18.109731 -3.590138 2.195586 10.434869 0.000000 0.000000 0.000000 1.689199 -0.461384 6.493566 -0.354478 1.823512 -6.027495 -6.978464 -1.150633 12.293126 2.201639 5.939573 11.461740 0.000000 0.000000 0.000000 0.664363 1.182194 -3.655479 -3.435308 3.686267 -5.774196 -0.371112 -3.391204 3.615853 -0.010226 -0.023709 -0.017893 -1.054290 -1.315036 6.119240 1.334745 -5.658750 -1.164629 0.000000 0.000000 0.000000 0.583253 -0.356978 3.495156 5.285168 1.448996 -3.717123 -0.041744 23.578095 -36.164701 -1.830490 -38.258225 -3.724485 0.000000 0.000000 0.000000 -3.215608 0.389504 2.966135 7.733822 -13.158570 -8.901405 18.012334 -28.298676 -33.090655 -1.837601 38.781845 -5.893640 0.000000 0.000000 0.000000 
-0.758770 36.666023 34.895493 -179.900394 0.480193 179.877226 -3.550242 -1.575441 8.800599 -2.620802 -4.098845 -16.657561 13.810347 12.725244 18.114833 -3.581290 2.179361 10.394294 0.000000 0.000000 0.000000 1.845892 -0.341168 6.482265 -0.394380 1.968742 -5.988598 -6.863741 -1.087584 12.269672 2.055632 5.823293 11.496586 0.000000 0.000000 0.000000 0.756888 1.175644 -3.620571 -3.375828 3.698186 -5.760265 -0.327151 -3.368762 3.614541 -0.017876 -0.000294 -0.019025 -1.064751 -1.012286 6.072828 1.266644 -5.718813 -1.092535 0.000000 0.000000 0.000000 0.564887 -0.319822 3.462609 5.363960 1.437744 -3.674617 -0.129209 23.625851 -36.102423 -1.842430 -38.344272 -3.644889 0.000000 0.000000 0.000000 -3.241140 0.437419 2.944640 7.720699 -13.044203 -8.881071 18.066023 -28.290736 -33.096873 -1.843997 38.799385 -5.916155 0.000000 0.000000 0.000000 
-0.758507 36.664711 34.905678 179.962821 0.307248 179.888837 -3.678852 -1.699158 8.779438 -2.615714 -4.169504 -16.674471 13.834534 12.630409 18.122201 -3.540513 2.197713 10.436275 0.000000 0.000000 0.000000 1.680765 -0.507620 6.477287 -0.284280 1.788118 -5.970561 -7.039603 -1.077852 12.241366 2.259052 5.972863 11.545130 0.000000 0.000000 0.000000 0.682713 1.223914 -3.610201 -3.436764 3.607507 -5.742026 -0.349971 -3.453401 3.624083 -0.020926 -0.094361 -0.034740 -1.030161 -1.205572 6.077283 1.319628 -5.658063 -0.967240 0.000000 0.000000 0.000000 0.600449 -0.300874 3.420359 5.340798 1.394979 -3.581207 -0.195254 23.738008 -36.050848 -1.843384 -38.316275 -3.615995 0.000000 0.000000 0.000000 -3.201068 0.468072 3.004859 7.711004 -12.928316 -8.917280 18.093922 -28.287676 -33.088366 -1.869379 38.798685 -5.917709 0.000000 0.000000 0.000000 
-0.763734 36.661324 34.915329 -179.923179 0.301809 179.824237 -3.558938 -1.664648 8.783461 -2.647247 -4.156515 -16.669568 13.791799 12.678363 18.120379 -3.546207 2.180517 10.453414 0.000000 0.000000 0.000000 1.791228 -0.454853 6.460208 -0.356500 1.869136 -5.916125 -6.912326 -0.978530 12.168785 2.076203 5.809323 11.566329 0.000000 0.000000 0.000000 0.754002 1.093123 -3.562098 -3.419271 3.667118 -5.711709 -0.309795 -3.386585 3.637525 0.027649 -0.036415 -0.006906 -1.081357 -1.106383 6.024242 1.246789 -5.721591 -0.813723 0.000000 0.000000 0.000000 0.552994 -0.316391 3.361385 5.359009 1.313152 -3.622966 -0.184326 23.832861 -35.982338 -1.846236 -38.331575 -3.516780 0.000000 0.000000 0.000000 -3.244408 0.462204 2.881103 7.729095 -12.871412 -8.871033 18.150854 -28.391215 -32.998775 -1.929636 38.773970 -5.976707 0.000000 0.000000 0.000000 
-0.771952 36.655380 34.922173 179.971796 0.207588 179.815849 -3.645036 -1.687332 8.777888 -2.687602 -4.213918 -16.670974 13.810100 12.611415 18.104157 -3.517753 2.196569 10.480955 0.000000 0.000000 0.000000 1.649765 -0.533670 6.464623 -0.289588 1.697315 -5.920989 -7.062972 -1.059065 12.211999 2.242880 5.929726 11.560658 0.000000 0.000000 0.000000 0.708655 1.082795 -3.536828 -3.470617 3.667941 -5.693711 -0.326707 -3.349026 3.655119 -0.036304 -0.012227 0.000185 -0.968290 -1.296710 6.001305 1.247323 -5.696886 -0.623123 0.000000 0.000000 0.000000 0.656024 -0.363577 3.354294 5.381454 1.203709 -3.694512 -0.376336 23.965078 -35.896992 -1.851855 -38.458920 -3.407785 0.000000 0.000000 0.000000 -3.144652 0.398311 2.873278 7.697915 -12.828661 -8.871791 18.178537 -28.401624 -33.066250 -1.923914 38.766740 -5.978927 0.000000 0.000000 0.000000 
-0.786380 36.646328 34.923233 179.974228 0.232604 179.822161 -3.611807 -1.631579 8.778991 -2.744767 -4.229681 -16.680323 13.802662 12.675010 18.105908 -3.511200 2.196377 10.445162 0.000000 0.000000 0.000000 1.665996 -0.456672 6.465127 -0.324971 1.676759 -5.947899 -7.027775 -1.057250 12.295756 2.260259 5.936872 11.469401 0.000000 0.000000 0.000000 0.736140 1.098714 -3.504417 -3.481339 3.687332 -5.722353 -0.289727 -3.336660 3.648337 -0.012695 -0.004288 -0.002662 -0.960625 -1.262928 5.987199 1.201952 -5.726362 -0.412875 0.000000 0.000000 0.000000 0.691460 -0.337006 3.340760 5.350041 1.138896 -3.755346 -0.377115 24.024333 -35.651798 -1.839562 -38.583076 -3.283045 0.000000 0.000000 0.000000 -3.117624 0.434555 2.797326 7.684914 -12.742099 -8.829990 18.191905 -28.546354 -33.077595 -1.876524 38.776750 -5.883909 0.000000 0.000000 0.000000 
-0.806836 36.642937 34.924370 179.978831 0.293640 179.814046 -3.585905 -1.576037 8.786763 -2.814299 -4.232511 -16.676889 13.813383 12.763354 18.094204 -3.513633 2.190291 10.423768 0.000000 0.000000 0.000000 1.699037 -0.384244 6.461551 -0.405824 1.687049 -5.962692 -6.991254 -1.060921 12.369372 2.266143 5.932657 11.380140 0.000000 0.000000 0.000000 0.755190 1.098016 -3.465098 -3.505479 3.680105 -5.761602 -0.268212 -3.347427 3.637602 0.005454 -0.026635 -0.031368 -0.943145 -1.202539 5.961334 1.174068 -5.723350 -0.173753 0.000000 0.000000 0.000000 0.688138 -0.309953 3.272372 5.237716 1.051639 -3.580950 -0.486554 24.203571 -35.466229 -1.769357 -38.778027 -3.200933 0.000000 0.000000 0.000000 -3.091931 0.500007 2.790297 7.589460 -12.610974 -8.911222 18.267592 -28.713080 -33.219796 -1.843026 38.856837 -5.845552 0.000000 0.000000 0.000000 
-0.829821 36.644070 34.921528 179.970772 0.081039 179.796643 -3.582567 -1.716294 8.768780 -2.880569 -4.203869 -16.666715 13.837984 12.681018 18.097046 -3.500898 2.198148 10.489524 0.000000 0.000000 0.000000 1.686162 -0.642948 6.494452 -0.444674 1.563316 -5.952217 -7.047284 -1.060308 12.310012 2.405094 6.038309 11.459228 0.000000 0.000000 0.000000 0.785981 1.133458 -3.403286 -3.496614 3.599469 -5.790560 -0.242103 -3.380619 3.609330 -0.024960 -0.096530 -0.020272 -0.873151 -1.229588 5.923675 1.137758 -5.751946 0.067131 0.000000 0.000000 0.000000 0.737926 -0.309620 3.238391 5.131822 0.947922 -3.783439 -0.514073 24.303917 -35.157098 -1.762256 -39.029928 -3.025231 0.000000 0.000000 0.000000 -3.063205 0.471281 2.730093 7.579851 -12.489756 -8.638161 18.226503 -28.798837 -33.427875 -1.998893 38.840591 -5.974470 0.000000 0.000000 0.000000 
